# xmcd CD database file
#
# Track frame offsets:
#	150
#	13995
#	34033
#	47769
#	67502
#	80193
#	104231
#	118556
#	136110
#	154484
#	170722
#	188189
#
# Disc length: 2767 seconds
#
# Revision: 0
# Processed by: cddbd v1.5.2PL0 Copyright (c) Steve Scherf et al.
# Submitted via: CDex 1.70beta2
#
DISCID=a70acd0c
DTITLE=Randi Tytingvåg Trio - Roots and Wings
DYEAR=2017
DGENRE=Jazz
TTITLE0=Yes, But No...
TTITLE1=The Blue Lady
TTITLE2=Break
TTITLE3=Song for My Mother
TTITLE4=Coffee
TTITLE5=You're on Your Way
TTITLE6=Missionary Business
TTITLE7=Slowly
TTITLE8=Lilly
TTITLE9=Figure It out
TTITLE10=Memories Aren't Invited
TTITLE11=The Queen Has Left the Building
EXTD=YEAR: 2017
EXTT0=
EXTT1=
EXTT2=
EXTT3=
EXTT4=
EXTT5=
EXTT6=
EXTT7=
EXTT8=
EXTT9=
EXTT10=
EXTT11=
PLAYORDER=
